<svg width="40" height="40" viewBox="0 0 40 40" fill="none" xmlns="http://www.w3.org/2000/svg">
<path d="M5.25 23.9167C7.47223 25.6389 10.2778 26.6667 13.3333 26.6667C20.6945 26.6667 26.6667 20.6945 26.6667 13.3333C26.6667 5.97222 20.6945 0 13.3333 0C5.97223 0 0 5.97222 0 13.3333C0 16.3889 1.02778 19.1945 2.75 21.4445L0.0277778 26.6667L5.25 23.9167Z" fill="#319AD6"/>
<path d="M37.2499 34.75C38.9722 32.5 39.9999 29.6945 39.9999 26.6667C39.9999 19.3056 34.0277 13.3334 26.6666 13.3334C19.3055 13.3334 13.3333 19.3056 13.3333 26.6667C13.3333 34.0278 19.3055 40 26.6666 40C29.7221 40 32.5277 38.9723 34.7777 37.2501L39.9999 39.9723L37.2499 34.75Z" fill="#E95255"/>
<path opacity="0.1" d="M26.6666 13.3334C19.3055 13.3334 13.3333 19.3056 13.3333 26.6667C20.6944 26.6667 26.6666 20.6945 26.6666 13.3334Z" fill="black"/>
</svg>
